<?xml version="1.0" standalone="no"?>
<!DOCTYPE svg PUBLIC "-//W3C//DTD SVG 20010904//EN"
 "http://www.w3.org/TR/2001/REC-SVG-20010904/DTD/svg10.dtd">
<svg version="1.0" xmlns="http://www.w3.org/2000/svg"
 width="360.000000pt" height="360.000000pt" viewBox="0 0 360.000000 360.000000"
 preserveAspectRatio="xMidYMid meet">

<g transform="translate(0.000000,360.000000) scale(0.100000,-0.100000)"
fill="#000000" stroke="none">
<path d="M3010 3220 c-658 -147 -843 -189 -977 -221 -68 -16 -133 -29 -145
-29 -12 0 -159 45 -327 99 -490 159 -663 212 -685 209 -29 -4 -56 -57 -67
-132 -12 -75 -2 -121 34 -153 21 -20 106 -59 197 -91 25 -8 47 -19 50 -23 3
-4 37 -19 75 -35 39 -15 75 -31 82 -36 7 -6 17 -7 23 -3 5 3 10 2 10 -4 0 -6
7 -7 17 -4 10 4 14 2 9 -5 -8 -13 29 -26 45 -16 8 5 9 3 4 -6 -6 -10 -4 -12 8
-7 10 3 17 2 17 -4 0 -6 5 -7 11 -4 5 4 19 -1 31 -12 11 -10 22 -17 24 -15 2
1 20 -5 40 -13 21 -8 55 -22 78 -29 80 -28 151 -64 174 -89 l24 -25 -39 -12
c-66 -21 -247 -101 -264 -116 -34 -30 -44 -18 -45 55 0 60 -4 75 -29 106 -24
33 -156 124 -445 309 -41 26 -117 74 -168 107 -51 33 -101 59 -110 57 -15 -3
191 -144 450 -309 294 -187 284 -175 276 -326 -3 -51 -8 -96 -11 -99 -6 -7
-49 21 -394 263 -153 107 -268 181 -275 177 -7 -4 -8 -3 -4 5 8 13 -15 24 -40
19 -11 -2 34 -41 132 -114 177 -131 517 -370 558 -391 25 -13 53 -13 260 6
127 11 300 25 384 31 330 23 458 37 490 54 18 9 56 19 85 22 l52 4 -50 -20
-50 -20 45 5 c25 2 110 9 190 16 122 9 156 15 210 39 36 16 83 31 105 35 93
15 95 16 115 55 21 41 29 173 11 184 -5 3 -43 3 -84 0 l-76 -7 1 -59 c0 -33
-4 -64 -11 -71 -8 -8 -11 -2 -11 25 0 19 -3 50 -6 68 l-7 32 -71 -6 c-39 -4
-98 -9 -131 -13 l-60 -5 0 -59 c0 -33 -6 -64 -13 -71 -9 -9 -12 2 -12 55 l0
67 -52 -1 c-29 0 -93 -4 -143 -8 -49 -5 -91 -7 -93 -6 -10 9 198 75 237 75 44
0 235 23 421 50 l84 13 -34 29 c-19 15 -49 34 -67 40 -18 7 -33 15 -33 18 0 3
97 29 215 59 118 30 224 60 235 68 25 18 50 102 50 169 0 80 -34 145 -74 143
-12 -1 -217 -45 -456 -99z m467 76 c0 -8 -6 -12 -15 -9 -11 5 -11 7 0 14 7 5
13 9 14 9 0 0 1 -6 1 -14z m-37 -15 c0 -5 -6 -14 -14 -20 -12 -10 -17 -8 -26
8 -9 19 -8 21 15 21 14 0 25 -4 25 -9z m64 -2 c-3 -6 0 -15 7 -20 9 -6 10 -9
2 -9 -15 0 -26 17 -18 30 3 6 8 10 11 10 3 0 2 -5 -2 -11z m-183 -20 c-14 -5
-32 -15 -40 -22 -10 -8 -13 -9 -8 0 4 6 4 13 0 16 -5 2 -3 3 3 1 6 -1 17 2 25
7 8 5 21 8 29 8 8 0 4 -5 -9 -10z m69 -3 c0 -9 -30 -14 -35 -6 -4 6 3 10 14
10 12 0 21 -2 21 -4z m-1986 -165 c264 -87 490 -160 501 -163 23 -4 33 -51 34
-159 1 -53 -13 -129 -23 -129 -4 0 -296 107 -646 237 -201 74 -374 144 -385
154 -29 28 -29 167 -1 198 11 12 23 21 29 21 5 0 226 -71 491 -159z m1844 154
c-10 -11 -123 -36 -143 -32 -17 4 -16 5 5 6 14 1 48 8 75 16 55 15 71 18 63
10z m89 -11 c-3 -3 -12 -4 -19 -1 -8 3 -5 6 6 6 11 1 17 -2 13 -5z m33 -14 c0
-5 -2 -10 -4 -10 -3 0 -8 5 -11 10 -3 6 -1 10 4 10 6 0 11 -4 11 -10z m-83
-16 c2 -6 -17 -15 -43 -21 -25 -6 -42 -7 -37 -3 4 5 17 10 28 13 15 3 12 5
-10 7 l-30 2 30 8 c38 10 57 8 62 -6z m53 6 c0 -13 -11 -13 -30 0 -12 8 -11
10 8 10 12 0 22 -4 22 -10z m-271 -7 c-10 -2 -19 -13 -22 -24 -3 -11 -13 -18
-24 -18 -16 1 -16 2 0 6 9 2 17 9 17 14 0 12 -7 11 -31 -2 -11 -5 -28 -9 -37
-6 -18 4 71 36 98 35 11 0 11 -1 -1 -5z m31 -19 c0 -9 -10 -18 -22 -22 -21 -5
-21 -6 -2 -13 16 -6 16 -8 2 -8 -26 -1 -33 20 -9 26 12 3 21 12 21 19 0 8 2
14 5 14 3 0 5 -7 5 -16z m90 -3 c0 -15 -31 -22 -48 -11 -14 9 -13 10 6 5 13
-4 22 -2 22 4 0 6 5 11 10 11 6 0 10 -4 10 -9z m262 -33 c-8 -8 -9 -4 -5 13 4
13 8 18 11 10 2 -7 -1 -18 -6 -23z m-560 15 c-6 -2 -10 -9 -7 -13 3 -5 0 -12
-6 -16 -8 -4 -9 -3 -5 4 5 8 -1 12 -16 13 -23 1 -23 1 2 9 28 9 52 11 32 3z
m-102 -29 c-25 -7 -56 -13 -70 -13 -15 1 -7 5 19 10 24 5 46 11 49 14 3 3 15
5 26 4 12 0 1 -7 -24 -15z m254 8 c3 -5 0 -9 -7 -9 -7 0 -50 -10 -96 -22 -64
-17 -86 -19 -95 -10 -8 8 -5 9 13 4 18 -5 22 -4 16 5 -5 9 -4 11 3 6 7 -4 29
-4 49 1 l38 7 -30 8 c-26 6 -24 7 10 4 22 -3 49 0 60 4 27 11 33 12 39 2z
m-401 -49 c-7 -2 -21 -2 -30 0 -10 3 -4 5 12 5 17 0 24 -2 18 -5z m177 -3 c10
-6 2 -7 -25 -3 -49 7 -58 13 -19 13 16 0 36 -5 44 -10z m-247 -7 c-7 -2 -19
-2 -25 0 -7 3 -2 5 12 5 14 0 19 -2 13 -5z m-43 -7 c0 -2 -9 -6 -20 -9 -11 -3
-18 -1 -14 4 5 9 34 13 34 5z m103 -3 c-7 -2 -19 -2 -25 0 -7 3 -2 5 12 5 14
0 19 -2 13 -5z m137 -3 c-34 -11 -60 -11 -35 0 11 5 29 8 40 8 16 0 15 -2 -5
-8z m-290 -9 c0 -5 -9 -7 -20 -4 -11 3 -20 7 -20 9 0 2 9 4 20 4 11 0 20 -4
20 -9z m-39 -11 c5 0 9 -5 9 -10 0 -7 -6 -7 -19 -1 -14 8 -33 6 -68 -4 -68
-21 -79 -17 -13 5 30 11 61 17 68 14 8 -2 18 -4 23 -4z m199 -10 c-34 -11 -60
-11 -35 0 11 5 29 8 40 8 16 0 15 -2 -5 -8z m-92 -16 c30 5 28 3 -13 -9 -27
-8 -57 -13 -65 -11 -8 2 -4 4 9 5 24 1 24 1 5 17 -18 14 -18 15 4 4 12 -6 39
-8 60 -6z m-268 -8 c0 -2 -11 -6 -25 -8 -13 -3 -22 -1 -19 3 5 9 44 13 44 5z
m117 -12 c-3 -3 -12 -4 -19 -1 -8 3 -5 6 6 6 11 1 17 -2 13 -5z m-198 -8 c-2
-2 -17 -6 -34 -10 -22 -5 -26 -4 -15 4 14 9 59 15 49 6z m144 -3 c-7 -2 -19
-2 -25 0 -7 3 -2 5 12 5 14 0 19 -2 13 -5z m-223 -13 c-20 -13 -33 -13 -25 0
3 6 14 10 23 10 15 0 15 -2 2 -10z m260 1 c-29 -16 -70 -22 -70 -10 0 7 3 10
6 7 3 -3 17 -2 32 2 36 11 51 11 32 1z m-340 -21 c0 -5 -7 -11 -15 -11 -8 -1
-21 -2 -27 -3 -26 -4 -32 8 -8 15 37 10 50 10 50 -1z m205 -12 c6 -4 2 -8 -7
-8 -10 0 -18 7 -18 17 0 9 3 12 8 7 4 -5 12 -12 17 -16z m42 6 c-3 -3 -12 -4
-19 -1 -8 3 -5 6 6 6 11 1 17 -2 13 -5z m-322 -47 c0 -20 -4 -37 -9 -37 -5 0
-6 16 -3 35 3 21 2 33 -4 30 -5 -4 -9 -1 -9 5 0 7 6 10 12 8 7 -3 13 -21 13
-41z m242 27 c-3 -3 -12 -4 -19 -1 -8 3 -5 6 6 6 11 1 17 -2 13 -5z m-142 -13
c-30 -12 -101 -24 -93 -15 4 4 25 10 45 14 52 10 72 10 48 1z m22 -17 c-3 -3
-12 -4 -19 -1 -8 3 -5 6 6 6 11 1 17 -2 13 -5z m-40 -10 c-3 -3 -12 -4 -19 -1
-8 3 -5 6 6 6 11 1 17 -2 13 -5z m-40 -10 c-3 -3 -12 -4 -19 -1 -8 3 -5 6 6 6
11 1 17 -2 13 -5z m693 -443 c-8 -16 -8 -21 1 -21 7 0 10 -3 6 -6 -15 -15 -26
8 -15 31 6 14 13 23 15 21 3 -2 0 -14 -7 -25z m193 2 c-7 -2 -19 -2 -25 0 -7
3 -2 5 12 5 14 0 19 -2 13 -5z m54 1 c-3 -3 -12 -4 -19 -1 -8 3 -5 6 6 6 11 1
17 -2 13 -5z m-579 -61 c-10 -2 -28 -2 -40 0 -13 2 -5 4 17 4 22 1 32 -1 23
-4z m-100 -10 c-10 -2 -26 -2 -35 0 -10 3 -2 5 17 5 19 0 27 -2 18 -5z m-115
-10 c-7 -2 -19 -2 -25 0 -7 3 -2 5 12 5 14 0 19 -2 13 -5z"/>
<path d="M1120 3130 c8 -5 20 -10 25 -10 6 0 3 5 -5 10 -8 5 -19 10 -25 10 -5
0 -3 -5 5 -10z"/>
<path d="M3258 3203 c7 -3 16 -2 19 1 4 3 -2 6 -13 5 -11 0 -14 -3 -6 -6z"/>
<path d="M935 2832 c24 -25 385 -267 385 -258 0 5 -350 244 -380 261 -10 5
-12 5 -5 -3z"/>
<path d="M3131 2385 c-5 -98 -9 -106 -71 -126 -311 -99 -629 -203 -787 -255
-106 -35 -195 -64 -198 -64 -3 0 -6 28 -7 63 0 34 -3 46 -5 27 -8 -81 -13 -97
-38 -108 l-25 -12 -2 118 -2 117 -5 -117 c-3 -64 -8 -119 -11 -122 -3 -2 -68
-26 -145 -51 -76 -25 -147 -50 -156 -56 -10 -5 -23 -26 -30 -46 -6 -21 -17
-44 -23 -52 -9 -12 -8 -12 12 -2 19 10 45 7 160 -23 75 -19 158 -38 184 -41
56 -8 58 -13 58 -142 0 -69 -5 -106 -21 -148 -23 -62 -63 -115 -86 -115 -22 0
-337 91 -518 150 -325 106 -826 250 -869 250 -9 0 -16 -8 -16 -18 0 -15 18
-23 96 -43 95 -24 119 -40 68 -45 -15 -2 -32 -8 -37 -13 -6 -6 -19 -11 -30
-11 -30 0 -9 -19 28 -26 19 -3 35 -9 35 -12 0 -3 -27 -30 -60 -59 -33 -30 -60
-61 -60 -69 0 -24 127 -220 137 -211 2 3 -26 48 -62 101 l-66 97 30 37 c16 20
44 52 63 69 l33 32 515 -130 c783 -197 943 -239 957 -251 37 -31 33 -163 -8
-259 -23 -53 -88 -119 -117 -119 -10 0 -59 16 -108 35 -505 202 -1030 395
-1069 395 -5 0 10 -11 34 -25 24 -14 145 -130 270 -257 l228 -232 184 33 c386
70 344 65 412 40 68 -26 65 -29 -51 -49 -39 -7 -70 -15 -68 -18 3 -2 161 26
352 64 192 37 343 69 338 71 -6 2 -104 -14 -219 -36 -115 -22 -210 -39 -212
-37 -2 1 30 23 70 48 52 32 91 48 142 58 67 12 476 101 710 154 172 39 399 94
425 104 24 9 24 9 3 20 -11 6 -24 8 -28 4 -5 -4 -5 -2 -2 5 9 14 -214 184
-289 221 -46 22 -52 28 -41 41 25 30 42 106 42 188 0 45 -3 84 -7 88 -3 3 -25
-6 -48 -20 -37 -23 -46 -25 -68 -15 -23 10 -24 9 -12 -5 7 -8 11 -17 9 -18 -2
-2 -68 -40 -146 -85 -208 -119 -238 -139 -222 -145 8 -3 3 -5 -11 -4 -16 1
-24 -3 -22 -11 1 -8 -2 -11 -9 -6 -7 4 -18 -1 -26 -11 -7 -11 -13 -15 -13 -10
0 5 -14 -4 -32 -21 -17 -16 -28 -23 -23 -16 6 11 3 12 -14 3 -11 -7 -21 -14
-21 -17 0 -3 5 -2 12 2 7 4 8 3 4 -4 -4 -6 -13 -9 -21 -6 -7 3 -18 -4 -25 -16
-7 -13 -17 -19 -26 -16 -8 3 -13 2 -10 -3 6 -9 -22 -26 -37 -22 -4 0 -18 -4
-30 -11 -12 -7 -25 -11 -29 -10 -5 1 -8 -3 -8 -8 0 -6 -1 -13 -2 -17 -6 -19
-100 -83 -97 -66 1 4 -3 20 -9 35 -8 19 -23 30 -52 38 -22 6 -40 13 -40 16 0
12 271 165 802 450 81 43 148 82 148 85 0 4 -35 10 -77 14 -137 12 -137 10
-24 76 109 64 121 78 141 170 14 65 10 213 -8 245 -11 22 -13 21 -109 -32 -54
-30 -98 -57 -98 -62 1 -4 6 -32 12 -62 14 -64 13 -102 -3 -107 -7 -2 -12 19
-13 58 -1 33 -6 71 -11 85 l-9 24 -58 -34 c-32 -18 -138 -77 -236 -130 -145
-80 -177 -101 -171 -114 17 -40 30 -106 26 -133 -6 -42 -22 -36 -22 9 -1 40
-14 120 -22 127 -4 5 -70 -29 -265 -137 l-81 -46 -5 24 c-4 22 11 32 182 123
282 150 602 317 734 383 76 37 115 62 111 70 -4 6 -3 8 3 5 17 -10 115 41 107
56 -6 9 -4 9 8 -1 12 -10 27 -8 78 11 34 13 67 31 72 40 7 13 5 15 -7 11 -8
-3 -15 -10 -15 -14 0 -4 -6 -7 -12 -6 -7 0 -46 -8 -86 -18 -53 -13 -70 -21
-60 -28 10 -7 8 -8 -5 -4 -10 3 -22 6 -25 6 -4 0 -5 22 -4 48 2 27 2 62 -1 78
-2 17 -5 4 -6 -31z m-61 -150 c0 -2 -6 -8 -13 -14 -10 -8 -14 -7 -14 2 0 8 6
14 14 14 7 0 13 -1 13 -2z m-105 -45 c-3 -5 -12 -10 -18 -10 -7 0 -6 4 3 10
19 12 23 12 15 0z m-105 -40 c-8 -5 -19 -10 -25 -10 -5 0 -3 5 5 10 8 5 20 10
25 10 6 0 3 -5 -5 -10z m-133 -35 c0 -8 -4 -12 -9 -9 -5 3 -6 10 -3 15 9 13
12 11 12 -6z m-67 -35 c-8 -5 -22 -9 -30 -9 -10 0 -8 3 5 9 27 12 43 12 25 0z
m-75 -28 c-3 -3 -11 0 -18 7 -9 10 -8 11 6 5 10 -3 15 -9 12 -12z m-35 -12
c-20 -13 -33 -13 -25 0 3 6 14 10 23 10 15 0 15 -2 2 -10z m-82 -19 c10 -6 5
-11 -19 -20 -18 -6 -34 -9 -37 -7 -2 3 8 8 23 12 20 5 23 9 13 15 -7 5 -8 9
-3 9 6 0 16 -4 23 -9z m-158 -61 c8 -5 11 -10 5 -10 -5 0 -17 5 -25 10 -8 5
-10 10 -5 10 6 0 17 -5 25 -10z m-30 -19 c-8 -5 -26 -11 -40 -15 -21 -5 -20
-3 5 9 32 15 60 20 35 6z m-193 -38 c-4 -3 -2 -12 4 -20 8 -8 8 -13 1 -13 -6
0 -19 -3 -29 -6 -16 -5 -16 -4 1 10 15 12 16 16 5 16 -12 0 -12 2 1 10 17 11
26 13 17 3z m53 -13 c-19 -13 -30 -13 -30 0 0 6 10 10 23 10 18 0 19 -2 7 -10z
m-113 -46 c-3 -3 -12 -4 -19 -1 -8 3 -5 6 6 6 11 1 17 -2 13 -5z m-97 -34 c-8
-5 -19 -10 -25 -10 -5 0 -3 5 5 10 8 5 20 10 25 10 6 0 3 -5 -5 -10z m-100
-34 c0 -2 -7 -7 -16 -10 -8 -3 -12 -2 -9 4 6 10 25 14 25 6z m-60 -26 c-8 -5
-22 -9 -30 -9 -10 0 -8 3 5 9 27 12 43 12 25 0z m-775 -295 c260 -75 407 -119
567 -169 65 -20 121 -36 125 -36 3 0 4 -2 1 -5 -3 -3 -41 4 -84 15 -64 18
-368 94 -606 152 -26 6 -45 15 -42 19 2 4 -4 5 -13 3 -10 -3 -72 9 -137 26
-65 16 -128 30 -138 30 -11 0 -16 5 -13 10 4 6 10 8 15 5 5 -3 12 0 15 6 4 5
13 8 19 6 7 -3 19 -1 27 4 8 5 21 6 29 3 8 -3 114 -34 235 -69z m2000 25 c-8
-13 -240 -130 -257 -130 -9 0 249 139 260 140 2 0 0 -5 -3 -10z m-623 -352
c-7 -7 -12 -8 -12 -2 0 14 12 26 19 19 2 -3 -1 -11 -7 -17z"/>
<path d="M735 1490 c27 -12 43 -12 25 0 -8 5 -22 9 -30 9 -10 0 -8 -3 5 -9z"/>
<path d="M792 1491 c-11 -7 -10 -9 3 -14 9 -4 14 -3 10 2 -3 5 1 12 7 14 7 3
9 6 3 6 -5 0 -16 -3 -23 -8z"/>
<path d="M865 1470 c27 -12 43 -12 25 0 -8 5 -22 9 -30 9 -10 0 -8 -3 5 -9z"/>
<path d="M987 1439 c7 -7 15 -10 18 -7 3 3 -2 9 -12 12 -14 6 -15 5 -6 -5z"/>
<path d="M1065 1410 c27 -12 43 -12 25 0 -8 5 -22 9 -30 9 -10 0 -8 -3 5 -9z"/>
<path d="M1138 1393 c7 -3 16 -2 19 1 4 3 -2 6 -13 5 -11 0 -14 -3 -6 -6z"/>
<path d="M1197 1379 c7 -7 15 -10 18 -7 3 3 -2 9 -12 12 -14 6 -15 5 -6 -5z"/>
<path d="M1044 2256 c11 -9 24 -16 30 -16 12 0 7 5 -24 19 -24 11 -24 11 -6
-3z"/>
<path d="M1165 2199 c78 -41 256 -121 261 -116 3 3 -286 138 -310 145 -6 1 16
-12 49 -29z"/>
<path d="M2063 2125 c0 -27 2 -38 4 -22 2 15 2 37 0 50 -2 12 -4 0 -4 -28z"/>
<path d="M547 2089 c-71 -28 -125 -55 -120 -59 4 -4 26 -13 48 -19 22 -7 49
-17 60 -22 25 -11 755 -194 810 -203 36 -5 32 -2 -39 34 -43 22 -82 37 -87 35
-4 -3 -160 31 -346 76 -295 71 -366 89 -340 89 26 0 375 -78 511 -115 93 -25
171 -43 173 -42 2 2 -38 25 -89 52 -51 26 -165 85 -253 130 -88 46 -169 85
-180 89 -12 3 -71 -15 -148 -45z"/>
<path d="M1130 2075 c36 -19 70 -34 75 -34 6 0 -19 15 -55 34 -36 19 -69 34
-75 34 -5 0 19 -15 55 -34z"/>
<path d="M1260 2016 c0 -2 7 -7 16 -10 8 -3 12 -2 9 4 -6 10 -25 14 -25 6z"/>
<path d="M1300 1996 c0 -2 7 -7 16 -10 8 -3 12 -2 9 4 -6 10 -25 14 -25 6z"/>
<path d="M1205 1640 c11 -5 27 -9 35 -9 9 0 8 4 -5 9 -11 5 -27 9 -35 9 -9 0
-8 -4 5 -9z"/>
<path d="M1261 1626 c8 -8 530 -158 535 -153 2 2 -19 11 -48 20 -437 127 -499
144 -487 133z"/>
<path d="M1825 1460 c11 -5 27 -9 35 -9 9 0 8 4 -5 9 -11 5 -27 9 -35 9 -9 0
-8 -4 5 -9z"/>
<path d="M2558 1326 c-78 -44 -88 -58 -13 -17 55 30 86 51 75 51 -3 0 -31 -15
-62 -34z"/>
<path d="M2368 1218 c-60 -34 -106 -63 -105 -65 4 -3 203 109 214 121 14 14
-8 3 -109 -56z"/>
<path d="M600 1110 c0 -24 508 -553 594 -619 67 -52 142 -88 197 -97 24 -4 98
-27 164 -52 66 -24 156 -55 199 -68 l80 -24 70 34 c330 160 595 276 631 276 9
0 30 -10 47 -21 23 -17 27 -24 16 -30 -10 -7 -9 -9 5 -9 10 0 29 -7 42 -16 24
-15 33 -15 153 15 70 18 136 34 147 38 11 3 17 3 14 -1 -8 -9 -325 -96 -534
-147 -364 -88 -932 -242 -916 -247 26 -9 946 220 1104 275 53 18 81 23 88 16
7 -7 -19 -18 -83 -36 -347 -94 -1387 -352 -1394 -345 -2 3 1 18 7 34 7 16 12
70 13 119 1 74 -3 98 -21 135 -29 58 -20 53 -518 310 -254 131 -360 187 -509
268 -104 57 -143 73 -154 65 -26 -16 -40 -73 -41 -161 -1 -99 12 -129 72 -170
70 -49 858 -517 1019 -606 52 -29 73 -35 100 -31 91 16 2031 509 2145 546 41
13 48 29 48 119 l0 74 62 17 c83 23 91 29 62 44 -19 10 -36 10 -84 -1 -103
-23 -1220 -244 -1415 -279 -299 -54 -563 -105 -588 -113 -20 -6 -34 2 -90 55
-66 61 -103 85 -66 41 17 -21 16 -21 -9 1 -15 14 -25 27 -22 30 8 8 -397 411
-407 405 -5 -3 -8 -2 -7 3 4 22 -3 34 -18 31 -10 -2 -18 2 -18 7 -1 19 -16 35
-27 29 -6 -4 -8 -2 -5 3 7 12 -26 46 -36 38 -4 -3 -5 -2 -2 2 3 3 -5 17 -17
30 -15 16 -33 23 -60 23 -21 0 -38 -5 -38 -10z m-360 -233 c80 -44 300 -161
490 -259 190 -99 371 -194 403 -211 65 -34 83 -60 93 -134 10 -78 -29 -223
-60 -223 -6 0 -92 47 -190 105 -99 57 -184 101 -190 98 -6 -3 -8 -2 -3 2 10
11 -121 87 -135 79 -7 -5 -8 -2 -3 6 6 10 4 12 -9 7 -9 -4 -15 -3 -12 2 3 4
-63 48 -147 96 -437 252 -434 250 -421 340 4 28 7 80 6 117 -3 81 -19 83 178
-25z m-209 -8 c-5 -13 -10 -19 -10 -12 -1 15 10 45 15 40 3 -2 0 -15 -5 -28z
m27 0 c0 -22 -2 -29 -10 -21 -5 5 -7 19 -3 31 9 29 12 26 13 -10z m-8 -57 c0
-15 -2 -15 -10 -2 -13 20 -13 33 0 25 6 -3 10 -14 10 -23z m1001 -89 c13 -16
12 -17 -3 -4 -10 7 -18 15 -18 17 0 8 8 3 21 -13z m-997 -9 c3 -8 2 -12 -4 -9
-6 3 -10 10 -10 16 0 14 7 11 14 -7z m1147 -141 c13 -16 12 -17 -3 -4 -10 7
-18 15 -18 17 0 8 8 3 21 -13z"/>
<path d="M1391 1116 c9 -9 602 -227 606 -223 5 5 -114 52 -390 152 -199 72
-226 81 -216 71z"/>
<path d="M2283 1099 c-33 -21 -40 -29 -25 -29 8 1 70 50 62 50 -3 0 -20 -10
-37 -21z"/>
<path d="M970 1035 c19 -19 36 -35 39 -35 3 0 -10 16 -29 35 -19 19 -36 35
-39 35 -3 0 10 -16 29 -35z"/>
<path d="M2700 790 c-20 -6 -21 -8 -5 -8 11 0 34 4 50 8 27 7 27 8 5 8 -14 0
-36 -4 -50 -8z"/>
<path d="M2648 773 c7 -3 16 -2 19 1 4 3 -2 6 -13 5 -11 0 -14 -3 -6 -6z"/>
<path d="M2598 763 c6 -2 18 -2 25 0 6 3 1 5 -13 5 -14 0 -19 -2 -12 -5z"/>
<path d="M1838 613 c6 -2 18 -2 25 0 6 3 1 5 -13 5 -14 0 -19 -2 -12 -5z"/>
<path d="M1788 603 c6 -2 18 -2 25 0 6 3 1 5 -13 5 -14 0 -19 -2 -12 -5z"/>
<path d="M1738 593 c7 -3 16 -2 19 1 4 3 -2 6 -13 5 -11 0 -14 -3 -6 -6z"/>
<path d="M1688 583 c7 -3 16 -2 19 1 4 3 -2 6 -13 5 -11 0 -14 -3 -6 -6z"/>
<path d="M2518 483 c7 -3 16 -2 19 1 4 3 -2 6 -13 5 -11 0 -14 -3 -6 -6z"/>
</g>
</svg>
